<svg id="visual" viewBox="0 0 900 600" width="900" height="600" xmlns="http://www.w3.org/2000/svg" xmlns:xlink="http://www.w3.org/1999/xlink" version="1.1"><rect x="0" y="0" width="900" height="600" fill="#001220"></rect><path d="M0 433L10 440.8C20 448.7 40 464.3 60 469.8C80 475.3 100 470.7 120 467.2C140 463.7 160 461.3 180 460.7C200 460 220 461 240 464.8C260 468.7 280 475.3 300 475.2C320 475 340 468 360 456.8C380 445.7 400 430.3 420 425.8C440 421.3 460 427.7 480 428.3C500 429 520 424 540 425C560 426 580 433 600 439C620 445 640 450 660 446C680 442 700 429 720 429.8C740 430.7 760 445.3 780 452.2C800 459 820 458 840 450.3C860 442.7 880 428.3 890 421.2L900 414L900 601L890 601C880 601 860 601 840 601C820 601 800 601 780 601C760 601 740 601 720 601C700 601 680 601 660 601C640 601 620 601 600 601C580 601 560 601 540 601C520 601 500 601 480 601C460 601 440 601 420 601C400 601 380 601 360 601C340 601 320 601 300 601C280 601 260 601 240 601C220 601 200 601 180 601C160 601 140 601 120 601C100 601 80 601 60 601C40 601 20 601 10 601L0 601Z" fill="#fa7268"></path><path d="M0 452L10 454.8C20 457.7 40 463.3 60 471C80 478.7 100 488.3 120 492C140 495.7 160 493.3 180 484.7C200 476 220 461 240 459.7C260 458.3 280 470.7 300 474.7C320 478.7 340 474.3 360 471.7C380 469 400 468 420 465.5C440 463 460 459 480 462.7C500 466.3 520 477.7 540 484C560 490.3 580 491.7 600 485.7C620 479.7 640 466.3 660 458.7C680 451 700 449 720 452.7C740 456.3 760 465.7 780 473.8C800 482 820 489 840 491C860 493 880 490 890 488.5L900 487L900 601L890 601C880 601 860 601 840 601C820 601 800 601 780 601C760 601 740 601 720 601C700 601 680 601 660 601C640 601 620 601 600 601C580 601 560 601 540 601C520 601 500 601 480 601C460 601 440 601 420 601C400 601 380 601 360 601C340 601 320 601 300 601C280 601 260 601 240 601C220 601 200 601 180 601C160 601 140 601 120 601C100 601 80 601 60 601C40 601 20 601 10 601L0 601Z" fill="#ef5f67"></path><path d="M0 479L10 480.8C20 482.7 40 486.3 60 491.5C80 496.7 100 503.3 120 502C140 500.7 160 491.3 180 492.8C200 494.3 220 506.7 240 513.5C260 520.3 280 521.7 300 518.7C320 515.7 340 508.3 360 506.2C380 504 400 507 420 510.5C440 514 460 518 480 516C500 514 520 506 540 498.8C560 491.7 580 485.3 600 485.8C620 486.3 640 493.7 660 497.5C680 501.3 700 501.7 720 499.7C740 497.7 760 493.3 780 497.5C800 501.7 820 514.3 840 512.5C860 510.7 880 494.3 890 486.2L900 478L900 601L890 601C880 601 860 601 840 601C820 601 800 601 780 601C760 601 740 601 720 601C700 601 680 601 660 601C640 601 620 601 600 601C580 601 560 601 540 601C520 601 500 601 480 601C460 601 440 601 420 601C400 601 380 601 360 601C340 601 320 601 300 601C280 601 260 601 240 601C220 601 200 601 180 601C160 601 140 601 120 601C100 601 80 601 60 601C40 601 20 601 10 601L0 601Z" fill="#e34c67"></path><path d="M0 524L10 522.3C20 520.7 40 517.3 60 516.2C80 515 100 516 120 515.7C140 515.3 160 513.7 180 516.8C200 520 220 528 240 529C260 530 280 524 300 522.8C320 521.7 340 525.3 360 530.7C380 536 400 543 420 546.5C440 550 460 550 480 547C500 544 520 538 540 535C560 532 580 532 600 534C620 536 640 540 660 541.3C680 542.7 700 541.3 720 536.7C740 532 760 524 780 520C800 516 820 516 840 521C860 526 880 536 890 541L900 546L900 601L890 601C880 601 860 601 840 601C820 601 800 601 780 601C760 601 740 601 720 601C700 601 680 601 660 601C640 601 620 601 600 601C580 601 560 601 540 601C520 601 500 601 480 601C460 601 440 601 420 601C400 601 380 601 360 601C340 601 320 601 300 601C280 601 260 601 240 601C220 601 200 601 180 601C160 601 140 601 120 601C100 601 80 601 60 601C40 601 20 601 10 601L0 601Z" fill="#d53867"></path><path d="M0 553L10 552.7C20 552.3 40 551.7 60 555C80 558.3 100 565.7 120 568.3C140 571 160 569 180 567.8C200 566.7 220 566.3 240 562.8C260 559.3 280 552.7 300 550.8C320 549 340 552 360 553.7C380 555.3 400 555.7 420 556C440 556.3 460 556.7 480 559C500 561.3 520 565.7 540 565.5C560 565.3 580 560.7 600 557.8C620 555 640 554 660 553.3C680 552.7 700 552.3 720 551C740 549.7 760 547.3 780 549.8C800 552.3 820 559.7 840 563.3C860 567 880 567 890 567L900 567L900 601L890 601C880 601 860 601 840 601C820 601 800 601 780 601C760 601 740 601 720 601C700 601 680 601 660 601C640 601 620 601 600 601C580 601 560 601 540 601C520 601 500 601 480 601C460 601 440 601 420 601C400 601 380 601 360 601C340 601 320 601 300 601C280 601 260 601 240 601C220 601 200 601 180 601C160 601 140 601 120 601C100 601 80 601 60 601C40 601 20 601 10 601L0 601Z" fill="#c62368"></path></svg>